<svg id="Icon_Set" enable-background="new 0 0 256 256" height="512" viewBox="0 0 256 256" width="512" xmlns="http://www.w3.org/2000/svg"><path d="m166.057 248.179-35.896-25.414-40.4 26.033c-3.327 2.144-7.708-.245-7.708-4.203v-75.196h91.893v74.699c.001 4.058-4.577 6.426-7.889 4.081z" fill="#ff4a73"/><path d="m173.95 169.397v74.7c0 4.06-4.58 6.43-7.89 4.08l-7.11-5.03v-73.75z" fill="#ea2a6a"/><path d="m97.05 169.397v74.7l-7.29 4.7c-3.33 2.14-7.71-.24-7.71-4.2v-75.2z" fill="#f973a3"/><path d="m226.506 109.749-19.38 9.625c-2.832 1.406-3.664 5.056-1.721 7.55l13.282 17.055c2.542 3.264.246 8.027-3.891 8.072l-21.614.234c-3.164.034-5.501 2.963-4.833 6.056l4.57 21.145c.873 4.04-3.255 7.335-7.001 5.587l-19.609-9.148c-2.865-1.337-6.236.288-6.975 3.362l-5.057 21.024c-.967 4.022-6.122 5.196-8.736 1.991l-13.666-16.757c-2.001-2.453-5.749-2.453-7.75 0l-13.667 16.757c-2.614 3.206-7.769 2.031-8.736-1.991l-5.058-21.024c-.739-3.074-4.11-4.698-6.975-3.362l-19.609 9.148c-3.746 1.748-7.874-1.547-7.001-5.587l4.57-21.145c.669-3.093-1.668-6.022-4.833-6.056l-21.614-.235c-4.137-.045-6.433-4.808-3.891-8.072l13.282-17.054c1.943-2.495 1.111-6.144-1.721-7.55l-19.379-9.625c-3.701-1.838-3.701-7.118 0-8.956l19.38-9.625c2.832-1.406 3.664-5.056 1.721-7.55l-13.282-17.056c-2.542-3.264-.246-8.027 3.891-8.072l21.614-.234c3.164-.034 5.501-2.963 4.833-6.056l-4.57-21.145c-.873-4.04 3.255-7.335 7.001-5.587l19.609 9.148c2.865 1.337 6.236-.288 6.975-3.362l5.057-21.024c.967-4.022 6.122-5.196 8.736-1.991l13.666 16.757c2.001 2.453 5.749 2.453 7.75 0l13.668-16.756c2.614-3.206 7.769-2.031 8.736 1.991l5.058 21.024c.739 3.074 4.11 4.698 6.975 3.362l19.609-9.148c3.746-1.748 7.874 1.547 7.001 5.587l-4.571 21.144c-.669 3.093 1.668 6.022 4.833 6.056l21.614.235c4.137.045 6.433 4.808 3.891 8.072l-13.282 17.054c-1.943 2.495-1.111 6.144 1.721 7.55l19.379 9.625c3.701 1.839 3.701 7.119 0 8.957z" fill="#f9d335"/><path d="m226.506 109.749-19.38 9.625c-2.832 1.406-3.664 5.056-1.721 7.55l13.282 17.055c2.542 3.264.246 8.027-3.891 8.072l-21.614.234c-3.164.034-5.501 2.963-4.833 6.056l4.57 21.145c.873 4.04-3.255 7.335-7.001 5.587l-19.609-9.148c-2.865-1.337-6.236.288-6.975 3.362l-5.057 21.024c-.967 4.022-6.122 5.196-8.736 1.991l-13.666-16.757c-2.001-2.453-5.749-2.453-7.75 0l-13.667 16.757c-2.614 3.206-7.769 2.031-8.736-1.991l-5.058-21.024c-.739-3.074-4.11-4.698-6.975-3.362l-19.609 9.148c-3.746 1.748-7.874-1.547-7.001-5.587l4.57-21.145c.669-3.093-1.668-6.022-4.833-6.056l-21.614-.235c-4.137-.045-6.433-4.808-3.891-8.072l13.282-17.054c1.943-2.495 1.111-6.144-1.721-7.55l-19.379-9.625c-3.701-1.838-3.701-7.118 0-8.956l19.38-9.625c2.832-1.406 3.664-5.056 1.721-7.55l-13.282-17.056c-2.542-3.264-.246-8.027 3.891-8.072l21.614-.234c3.164-.034 5.501-2.963 4.833-6.056l-4.57-21.145c-.873-4.04 3.255-7.335 7.001-5.587l19.609 9.148c2.865 1.337 6.236-.288 6.975-3.362l5.057-21.024c.967-4.022 6.122-5.196 8.736-1.991l13.666 16.757c2.001 2.453 5.749 2.453 7.75 0l13.668-16.756c2.614-3.206 7.769-2.031 8.736 1.991l5.058 21.024c.739 3.074 4.11 4.698 6.975 3.362l19.609-9.148c3.746-1.748 7.874 1.547 7.001 5.587l-4.571 21.144c-.669 3.093 1.668 6.022 4.833 6.056l21.614.235c4.137.045 6.433 4.808 3.891 8.072l-13.282 17.054c-1.943 2.495-1.111 6.144 1.721 7.55l19.379 9.625c3.701 1.839 3.701 7.119 0 8.957z" fill="#f9d335"/><path d="m56.2 58.489 21.62-.23c3.16-.04 5.5-2.97 4.83-6.06-4.958-22.935-4.834-21.736-4.62-23.02l-7.95-3.71c-3.74-1.75-7.87 1.55-7 5.59l4.57 21.14c.67 3.09-1.67 6.02-4.83 6.06l-21.62.23c-4.13.05-6.43 4.81-3.89 8.07l13.28 17.06c1.95 2.49 1.12 6.14-1.72 7.55l-19.38 9.62c-3.7 1.84-3.7 7.12 0 8.96l19.38 9.62c2.84 1.41 3.67 5.06 1.72 7.55l-13.28 17.06c-2.54 3.26-.24 8.03 3.89 8.07l21.62.24c3.16.03 5.5 2.96 4.83 6.05l-4.57 21.15c-.87 4.04 3.25 7.33 7 5.58l7.95-3.71c-.215-1.269-.333-.095 4.62-23.02.67-3.09-1.67-6.02-4.83-6.05l-21.62-.24c-4.13-.04-6.43-4.81-3.89-8.07l13.28-17.06c1.95-2.49 1.12-6.14-1.72-7.55l-19.38-9.62c-3.7-1.84-3.7-7.12 0-8.96l19.38-9.62c2.84-1.41 3.67-5.06 1.72-7.55l-13.28-17.06c-2.54-3.26-.24-8.02 3.89-8.07z" fill="#f9e27d"/><path d="m104.69 175.929-7.95 3.7 4.98 20.68c.97 4.02 6.12 5.2 8.74 1.99l5.2-6.38-4-16.63c-.73-3.08-4.11-4.7-6.97-3.36z" fill="#f9e27d"/><path d="m111.67 31.259 4-16.64-5.21-6.38c-2.62-3.2-7.77-2.03-8.74 1.99l-4.97 20.69 7.94 3.7c2.87 1.33 6.24-.29 6.98-3.36z" fill="#f9e27d"/><path d="m144.33 179.289-4 16.63 5.21 6.38c2.62 3.21 7.77 2.03 8.74-1.99l4.97-20.68-7.94-3.7c-2.86-1.34-6.24.28-6.98 3.36z" fill="#f2c300"/><path d="m145.54 8.239-5.2 6.38 4 16.64c.73 3.07 4.11 4.69 6.97 3.36l7.95-3.71-4.98-20.68c-.97-4.02-6.12-5.19-8.74-1.99z" fill="#f2c300"/><path d="m226.51 100.789-19.38-9.62c-2.84-1.41-3.67-5.06-1.72-7.55l13.28-17.06c2.54-3.26.24-8.02-3.89-8.07l-21.62-.23c-3.16-.04-5.5-2.97-4.83-6.06l4.57-21.14c.87-4.04-3.25-7.34-7-5.59l-7.95 3.71c.214 1.284.333.107-4.62 23.02-.67 3.09 1.67 6.02 4.83 6.06l21.62.23c4.13.05 6.43 4.81 3.89 8.07l-13.28 17.06c-1.95 2.49-1.12 6.14 1.72 7.55l19.38 9.62c3.7 1.84 3.7 7.12 0 8.96l-19.38 9.62c-2.84 1.41-3.67 5.06-1.72 7.55l13.28 17.06c2.54 3.26.24 8.03-3.89 8.07l-21.62.24c-3.16.03-5.5 2.96-4.83 6.05 4.957 22.939 4.835 21.754 4.62 23.02l7.95 3.71c3.74 1.75 7.87-1.54 7-5.58l-4.57-21.15c-.67-3.09 1.67-6.02 4.83-6.05l21.62-.24c4.13-.04 6.43-4.81 3.89-8.07l-13.28-17.06c-1.95-2.49-1.12-6.14 1.72-7.55l19.38-9.62c3.7-1.84 3.7-7.12 0-8.96z" fill="#f2c300"/><path d="m243.637 128.26h-231.274c-2.761 0-5-2.239-5-5v-35.982c0-2.761 2.239-5 5-5h231.274c2.761 0 5 2.239 5 5v35.982c0 2.761-2.239 5-5 5z" fill="#5fcdff"/><path d="m248.64 87.277v35.98c0 2.76-2.24 5-5 5h-15c2.76 0 5-2.24 5-5v-35.98c0-2.76-2.24-5-5-5h15c2.76 0 5 2.24 5 5z" fill="#30b6ff"/><path d="m27.36 128.257h-15c-2.76 0-5-2.24-5-5v-35.98c0-2.76 2.24-5 5-5h15c-2.76 0-5 2.24-5 5v35.98c0 2.76 2.24 5 5 5z" fill="#73d7f9"/><g fill="#5f266d"><path d="m142.74 61.637c.32.32.47.78.39 1.23l-1.03 6.01c-.19 1.13 1 1.99 2.01 1.46l5.4-2.84c.4-.21.88-.21 1.29 0l5.39 2.84c1.02.53 2.21-.33 2.01-1.46l-1.03-6.01c-.08-.45.07-.91.4-1.23l4.36-4.25c.83-.8.37-2.2-.76-2.36l-6.03-.88c-.46-.07-.85-.35-1.05-.76l-2.69-5.46c-.51-1.03-1.98-1.03-2.49 0l-2.7 5.46c-.2.41-.59.69-1.04.76l-6.03.88c-1.14.16-1.59 1.56-.77 2.36z"/><path d="m98.43 61.637c.33.32.48.78.4 1.23l-1.03 6.01c-.2 1.13.99 1.99 2.01 1.46l5.39-2.84c.41-.21.89-.21 1.29 0l5.4 2.84c1.01.53 2.2-.33 2.01-1.46l-1.03-6.01c-.08-.45.07-.91.39-1.23l4.37-4.25c.82-.8.37-2.2-.77-2.36l-6.03-.88c-.45-.07-.84-.35-1.04-.76l-2.7-5.46c-.51-1.03-1.98-1.03-2.49 0l-2.69 5.46c-.2.41-.59.69-1.05.76l-6.03.88c-1.13.16-1.59 1.56-.76 2.36z"/><path d="m243.64 78.277h-29.01l7.21-9.26c4.568-5.86.467-14.443-7-14.53l-21.61-.23c-.657-.017-1.097-.607-.97-1.21l4.57-21.15c1.578-7.265-5.86-13.192-12.6-10.06l-19.61 9.15c-.589.278-1.239-.059-1.4-.67l-5.05-21.02c-1.757-7.266-11.04-9.334-15.73-3.59l-13.66 16.76c-.415.498-1.157.492-1.55 0l-13.67-16.76c-4.697-5.752-13.977-3.662-15.73 3.59l-5.05 21.02c-.161.611-.811.948-1.4.67l-19.61-9.15c-6.765-3.144-14.175 2.813-12.6 10.06l4.57 21.15c.127.603-.313 1.193-.97 1.21l-21.61.23c-7.43.086-11.588 8.644-7 14.53l7.21 9.26h-29.01c-4.96 0-9 4.04-9 9v35.98c0 4.96 4.04 9 9 9h29.01l-7.21 9.26c-4.588 5.886-.432 14.444 7 14.53l21.61.24c.65 0 1.098.587.97 1.21l-4.57 21.14c-1.568 7.241 5.818 13.212 12.6 10.06l6.28-2.93v58.83c0 7.131 7.948 11.408 13.88 7.56l38.13-24.57 33.69 23.86c5.958 4.225 14.2-.069 14.2-7.35v-58.33l6.28 2.93c6.746 3.135 14.176-2.785 12.6-10.06l-4.57-21.14c-.128-.623.32-1.21.97-1.21l21.61-.24c7.412-.086 11.598-8.631 7-14.53l-7.21-9.26h29.01c4.96 0 9-4.04 9-9v-35.98c0-4.96-4.04-9-9-9zm-203.17-14.17c-.519-.665-.057-1.604.78-1.62l21.61-.23c5.674-.063 9.902-5.314 8.7-10.9l-4.57-21.15c-.181-.825.648-1.463 1.4-1.12l19.61 9.15c5.162 2.413 11.234-.535 12.55-6.05l5.06-21.02c.193-.803 1.226-1.055 1.75-.4l13.67 16.76c3.548 4.383 10.324 4.44 13.94 0l13.67-16.76c.54-.654 1.557-.404 1.75.4l5.06 21.02c1.318 5.522 7.394 8.46 12.55 6.05l19.61-9.15c.752-.344 1.581.295 1.4 1.12l-4.57 21.15c-1.204 5.597 3.036 10.837 8.7 10.9l21.61.23c.837.016 1.299.955.78 1.62l-11.04 14.17h-152.98zm129.48 179.99c0 .797-.898 1.302-1.58.82l-35.9-25.42c-1.33-.94-3.1-.98-4.48-.09l-40.39 26.03c-.691.428-1.55-.054-1.55-.84v-62.56l5.33-2.49c.573-.271 1.238.055 1.4.67l5.05 21.03c1.752 7.247 11.029 9.334 15.73 3.58l13.66-16.76c.404-.485 1.164-.482 1.55 0l13.67 16.76c4.707 5.765 13.98 3.657 15.73-3.58l5.05-21.03c.163-.62.827-.932 1.4-.67l5.33 2.49zm45.58-97.66c.521.652.054 1.61-.78 1.61l-21.61.24c-5.7.063-9.897 5.313-8.7 10.9l4.57 21.14c.182.828-.664 1.472-1.4 1.12-19.845-9.265-5.839-2.716-19.61-9.15-5.179-2.421-11.248.565-12.55 6.05l-5.06 21.03c-.19.777-1.195 1.063-1.75.39l-13.67-16.75c-3.578-4.415-10.363-4.413-13.94 0l-13.67 16.75c-.555.673-1.56.387-1.75-.39l-5.06-21.03c-1.279-5.389-7.249-8.504-12.55-6.05-13.71 6.406.427-.205-19.61 9.15-.736.352-1.582-.292-1.4-1.12l4.57-21.14c1.2-5.598-3.011-10.837-8.7-10.9l-21.61-.24c-.834 0-1.301-.958-.78-1.61l11.04-14.18h152.98zm29.11-23.18c0 .55-.45 1-1 1-105.438 0-125.919 0-231.28 0-.55 0-1-.45-1-1v-35.98c0-.55.45-1 1-1h231.28c.55 0 1 .45 1 1z"/><path d="m177.01 146.527-6.03-.87c-.45-.07-.84-.35-1.04-.76l-2.7-5.47c-.51-1.03-1.98-1.03-2.49 0l-2.69 5.47c-.21.41-.6.69-1.05.76l-6.03.87c-1.13.17-1.59 1.56-.77 2.36l4.37 4.26c.32.32.47.78.4 1.22l-1.03 6.01c-.2 1.13.99 2 2.01 1.46l5.39-2.83c.4-.22.89-.22 1.29 0l5.4 2.83c1.01.54 2.2-.33 2.01-1.46l-1.03-6.01c-.08-.44.07-.9.39-1.22l4.37-4.26c.82-.8.37-2.19-.77-2.36z"/><path d="m101.02 146.527-6.03-.87c-.45-.07-.84-.35-1.05-.76l-2.69-5.47c-.51-1.03-1.98-1.03-2.49 0l-2.7 5.47c-.2.41-.59.69-1.04.76l-6.03.87c-1.14.17-1.59 1.56-.77 2.36l4.37 4.26c.32.32.47.78.39 1.22l-1.03 6.01c-.19 1.13 1 2 2.01 1.46l5.4-2.83c.4-.22.89-.22 1.29 0l5.39 2.83c1.02.54 2.21-.33 2.01-1.46l-1.03-6.01c-.07-.44.08-.9.4-1.22l4.37-4.26c.82-.8.36-2.19-.77-2.36z"/><path d="m139.01 146.527-6.03-.87c-.45-.07-.84-.35-1.04-.76l-2.7-5.47c-.51-1.03-1.97-1.03-2.48 0l-2.7 5.47c-.2.41-.59.69-1.04.76l-6.03.87c-1.14.17-1.59 1.56-.77 2.36l4.36 4.26c.33.32.48.78.4 1.22l-1.03 6.01c-.19 1.13.99 2 2.01 1.46l5.4-2.83c.4-.22.88-.22 1.28 0l5.4 2.83c1.02.54 2.2-.33 2.01-1.46l-1.03-6.01c-.08-.44.07-.9.4-1.22l4.36-4.26c.82-.8.37-2.19-.77-2.36z"/><path d="m48.605 94.9c-.361-1.059-1.355-1.77-2.473-1.77-1.367 0-3.448-.311-4.155 1.773-6.885 20.266-7.101 19.661-6.034 21.151 1.168 1.63 4.314 1.543 5.054-.702l1.591-4.816h5.293c1.889 5.563 1.74 6.61 4.663 6.61 1.788 0 3.052-1.764 2.473-3.457zm-4.45 10.516 1.069-3.16 1.075 3.16z"/><path d="m135.994 94.898c-.362-1.058-1.355-1.768-2.473-1.768h-1.681c-1.12 0-2.114.712-2.474 1.773l-6.385 18.79c-1.175 3.463 4.337 4.895 5.403 1.659l1.591-4.816h5.293l1.644 4.838c1.082 3.183 6.691 1.823 5.493-1.685zm-4.45 10.518 1.069-3.161 1.075 3.161z"/><path d="m22.672 99.697c0-.797.646-1.649 2.461-1.649 2.4 0 2.865 1.098 4.45.344 2.005-.955 3.426-5.589-4.356-5.589-9.071 0-12.253 10.854-1.786 14.561 2.778 1.069 2.999 1.858 2.999 2.778 0 2.489-3.626 2.466-6.065 1.407-3.166-1.373-5.288 3.574-2.059 4.941 6.044 2.56 13.899.242 13.899-6.566-.001-7.986-9.543-6.907-9.543-10.227z"/><path d="m92.95 99.697c0-1.924 2.99-1.923 4.895-1.215 3.235 1.209 5.096-3.832 1.812-5.014-11.222-4.045-18.446 9.466-5.939 13.896 2.778 1.069 2.999 1.858 2.999 2.778 0 2.489-3.626 2.466-6.065 1.407-3.182-1.379-5.292 3.573-2.059 4.941 6.044 2.56 13.899.242 13.899-6.566 0-7.986-9.542-6.907-9.542-10.227z"/><path d="m70.279 93.13h-13.332c-3.423 0-3.492 5.307 0 5.307h3.779v16.095c0 3.504 5.744 3.491 5.744 0v-16.094h3.81c3.422 0 3.492-5.308-.001-5.308z"/><path d="m181.514 93.13h-13.333c-3.423 0-3.493 5.307 0 5.307h3.779v16.095c0 3.504 5.743 3.491 5.743 0v-16.094h3.811c3.423 0 3.492-5.308 0-5.308z"/><path d="m76.909 95.744v18.789c0 3.5 5.713 3.491 5.713 0v-18.789c0-3.444-5.713-3.541-5.713 0z"/><path d="m186.658 95.744v18.789c0 3.534 5.713 3.448 5.713 0v-18.789c0-3.501-5.713-3.492-5.713 0z"/><path d="m117.774 93.13h-9.092c-1.441 0-2.613 1.172-2.613 2.613v18.789c0 3.54 5.713 3.444 5.713 0v-6.897h5.338c3.448 0 3.461-5.245 0-5.245h-5.338v-3.984h5.992c3.435.001 3.478-5.276 0-5.276z"/><path d="m158.882 98.477c3.253 1.027 4.892-4.047 1.549-5.08-8.109-2.511-16.879 2.18-16.879 11.943 0 7.257 4.775 12.133 11.884 12.133 1.82 0 3.601-.242 5.013-.682 3.265-1.019 1.738-5.97-1.518-5-4.28 1.273-9.51-.001-9.51-6.544 0-6.949 5.643-7.976 9.461-6.77z"/><path d="m195.339 105.325c0 7.162 4.502 12.164 10.948 12.164 5.604 0 11.259-3.887 11.259-12.569 0-16.349-22.207-16.211-22.207.405zm5.9-.062c0-9.911 10.438-9.503 10.438-.219 0 9.786-10.438 9.521-10.438.219z"/><path d="m233.734 96.35c0 8.264-.004 8.692.013 9.957-.607-1-.56-.911-7.177-11.355-.881-1.389-2.192-1.214-3.444-1.214-1.441 0-2.613 1.172-2.613 2.613v18.79c0 3.496 5.557 3.484 5.557 0 0-8.531.004-8.995-.014-10.458.646 1.073.473.786 7.394 11.845 1.291 2.058 5.842 1.709 5.842-1.388v-18.79c-.001-3.431-5.558-3.518-5.558 0z"/></g></svg>