<svg id="Capa_1" enable-background="new 0 0 512 512" height="512" viewBox="0 0 512 512" width="512" xmlns="http://www.w3.org/2000/svg"><g><g><path d="m93.937 135.992h25.755v29.431h-25.755z" fill="#fcdd66"/></g><g><path d="m479.448 473.569v-227.14c-4.321 2.59-9.372 4.083-14.766 4.083-15.887 0-28.812-12.925-28.812-28.812h-2c0 15.887-12.925 28.812-28.812 28.812s-28.812-12.925-28.812-28.812h-2c0 15.887-12.925 28.812-28.812 28.812s-28.812-12.925-28.812-28.812h-2c0 15.887-12.925 28.812-28.812 28.812s-28.812-12.925-28.812-28.812h-2c0 15.887-12.925 28.812-28.812 28.812s-28.812-12.925-28.812-28.812h-2c0 15.887-12.925 28.812-28.812 28.812s-28.812-12.925-28.812-28.812h-2c0 15.887-12.925 28.812-28.812 28.812s-28.812-12.925-28.812-28.812h-2c0 15.887-12.925 28.812-28.812 28.812-5.394 0-10.445-1.493-14.766-4.083v227.14z" fill="#ffee9a"/></g><path d="m76.417 301.848c0-2.776 2.25-5.026 5.026-5.026h2.517v-56.132c-4.266-5.157-6.83-11.773-6.83-18.989 0 16.465-13.347 29.812-29.812 29.812-5.374 0-10.412-1.429-14.766-3.918v224.975h43.865z" fill="#fcdd66"/><g><path d="m494.494 204.854-3.366-1h-470.255l-3.366 1v16.847c0 16.465 13.347 29.812 29.812 29.812 16.464 0 29.812-13.347 29.812-29.812l1-.892v-14.955l-1-1h59.623l-1 1v14.945l1 .902c0 16.465 13.347 29.812 29.812 29.812 16.465 0 29.812-13.347 29.812-29.812l1-.913v-14.934l-1-1h59.622l-1 1v14.877l1 .97c0 16.465 13.347 29.812 29.812 29.812 16.464 0 29.812-13.347 29.812-29.812l1-.935v-14.912l-1-1h59.623l-1 1v14.9l1 .947c0 16.465 13.347 29.812 29.812 29.812s29.812-13.347 29.812-29.812l1-.859v-14.988l-1-1z" fill="#08a9f1"/><g><path d="m38.886 221.701v-16.847h-21.38v16.847c0 16.465 13.347 29.812 29.812 29.812 3.769 0 7.37-.706 10.69-1.982-11.182-4.299-19.122-15.134-19.122-27.83z" fill="#0290cf"/></g><g><path d="m158.133 221.701v-16.847h-21.38v16.847c0 16.465 13.347 29.812 29.812 29.812 3.769 0 7.37-.706 10.69-1.982-11.182-4.299-19.122-15.134-19.122-27.83z" fill="#0290cf"/></g><g><path d="m277.38 221.701v-16.847h-21.38v16.847c0 16.465 13.347 29.812 29.812 29.812 3.769 0 7.37-.706 10.69-1.982-11.183-4.299-19.122-15.134-19.122-27.83z" fill="#0290cf"/></g><g><path d="m396.626 221.701v-16.847h-21.38v16.847c0 16.465 13.347 29.812 29.812 29.812 3.769 0 7.37-.706 10.69-1.982-11.182-4.299-19.122-15.134-19.122-27.83z" fill="#0290cf"/></g><g><g><path d="m77.13 204.854v16.847c0 16.465 13.347 29.812 29.812 29.812 16.464 0 29.812-13.347 29.812-29.812v-16.847z" fill="#f3f0ff"/></g><g><path d="m98.509 221.701v-16.847h-21.379v16.847c0 16.465 13.347 29.812 29.812 29.812 3.769 0 7.37-.706 10.69-1.982-11.183-4.299-19.123-15.134-19.123-27.83z" fill="#e2defb"/></g><g><path d="m196.377 204.854v16.847c0 16.465 13.347 29.812 29.812 29.812 16.464 0 29.812-13.347 29.812-29.812v-16.847z" fill="#f3f0ff"/></g><g><path d="m217.756 221.701v-16.847h-21.38v16.847c0 16.465 13.347 29.812 29.812 29.812 3.769 0 7.37-.706 10.69-1.982-11.182-4.299-19.122-15.134-19.122-27.83z" fill="#e2defb"/></g><g><path d="m315.623 204.854v16.847c0 16.465 13.347 29.812 29.812 29.812 16.464 0 29.812-13.347 29.812-29.812v-16.847z" fill="#f3f0ff"/></g><g><path d="m337.003 221.701v-16.847h-21.38v16.847c0 16.465 13.347 29.812 29.812 29.812 3.769 0 7.37-.706 10.69-1.982-11.182-4.299-19.122-15.134-19.122-27.83z" fill="#e2defb"/></g><g><g><path d="m434.87 204.854v16.847c0 16.465 13.347 29.812 29.812 29.812s29.812-13.347 29.812-29.812v-16.847z" fill="#f3f0ff"/></g></g><g><g><path d="m456.25 221.701v-16.847h-21.38v16.847c0 16.465 13.347 29.812 29.812 29.812 3.769 0 7.37-.706 10.69-1.982-11.182-4.299-19.122-15.134-19.122-27.83z" fill="#e2defb"/></g></g></g></g><g fill="#08a9f1"><path d="m77.417 474.311-1-1.741h-64.587c-2.845 0-5.151 2.306-5.151 5.151v29.129c0 2.845 2.306 5.151 5.151 5.151h64.587l1-1.984z"/><path d="m500.17 472.569h-305.462l-1 1.815v35.748l1 1.868h305.462c2.845 0 5.151-2.306 5.151-5.151v-29.129c0-2.844-2.306-5.151-5.151-5.151z"/></g><g fill="#0290cf"><path d="m76.417 490.881h-18.212c-2.845 0-5.151-2.306-5.151-5.151v-13.161h-41.224c-2.845 0-5.151 2.306-5.151 5.151v29.129c0 2.845 2.306 5.151 5.151 5.151h64.587z"/><path d="m194.708 490.881v21.119h305.462c2.845 0 5.151-2.306 5.151-5.151v-15.968z"/></g><g><g><path d="m438.944 415.699v-113.803c0-2.802-2.272-5.074-5.074-5.074h-190.316c-2.802 0-5.074 2.272-5.074 5.074v113.803z" fill="#fff"/><path d="m281.146 414.699v-112.803c0-2.803 2.272-5.074 5.074-5.074h-42.666c-2.802 0-5.074 2.272-5.074 5.074v112.803z" fill="#f3f0ff"/><path d="m412.238 415.699v-90.415c0-1.707-1.384-3.09-3.091-3.09h-140.871c-1.707 0-3.091 1.384-3.091 3.09v90.415z" fill="#62dbfb"/><path d="m297.207 414.699v-89.415c0-1.707 1.384-3.091 3.091-3.091h-32.022c-1.707 0-3.091 1.384-3.091 3.091v89.415z" fill="#01d0fb"/></g><g><g><path d="m448.748 414.699h-220.073c-2.845 0-5.151 2.306-5.151 5.151v15.453c0 2.845 2.306 5.151 5.151 5.151h220.073c2.845 0 5.151-2.306 5.151-5.151v-15.453c0-2.844-2.306-5.151-5.151-5.151z" fill="#fe5694"/></g></g><g><path d="m277.634 435.303v-15.453c0-2.845 2.306-5.151 5.151-5.151h-54.11c-2.845 0-5.151 2.306-5.151 5.151v15.453c0 2.845 2.306 5.151 5.151 5.151h54.11c-2.845 0-5.151-2.306-5.151-5.151z" fill="#fe0364"/></g></g><g><path d="m194.708 512h-118.291v-210.152c0-2.776 2.25-5.026 5.026-5.026h108.24c2.776 0 5.026 2.25 5.026 5.026v210.152z" fill="#f3f0ff"/></g><path d="m124.191 296.822h-42.749c-2.776 0-5.026 2.25-5.026 5.026v210.152h42.749v-210.152c0-2.776 2.25-5.026 5.026-5.026z" fill="#e2defb"/><g><g><path d="m169.336 413.005v-87.72c0-1.707-1.384-3.091-3.091-3.091h-61.367c-1.707 0-3.091 1.384-3.091 3.091v87.72c0 1.707 1.384 3.091 3.091 3.091h61.367c1.708-.001 3.091-1.385 3.091-3.091z" fill="#62dbfb"/></g><g><path d="m133.852 413.005v-87.72c0-1.707 1.384-3.091 3.091-3.091h-32.064c-1.707 0-3.091 1.384-3.091 3.091v87.72c0 1.707 1.384 3.091 3.091 3.091h32.064c-1.707-.001-3.091-1.384-3.091-3.091z" fill="#01d0fb"/></g><g><path d="m101.788 442.501v41.036c0 1.707 1.384 3.091 3.091 3.091h61.367c1.707 0 3.091-1.384 3.091-3.091v-41.036c0-1.707-1.384-3.091-3.091-3.091h-61.367c-1.707.001-3.091 1.384-3.091 3.091z" fill="#62dbfb"/></g><g><path d="m133.852 483.538v-41.036c0-1.707 1.384-3.091 3.091-3.091h-32.064c-1.707 0-3.091 1.384-3.091 3.091v41.036c0 1.707 1.384 3.091 3.091 3.091h32.064c-1.707-.001-3.091-1.384-3.091-3.091z" fill="#01d0fb"/></g></g><g><path d="m500.17 204.854h-488.34c-2.845 0-5.151-2.306-5.151-5.151v-29.129c0-2.845 2.306-5.151 5.151-5.151h488.34c2.845 0 5.151 2.306 5.151 5.151v29.129c0 2.845-2.306 5.151-5.151 5.151z" fill="#fe5694"/></g><g><path d="m58.205 183.887c-2.845 0-5.151-2.306-5.151-5.151v-13.313h-41.224c-2.845 0-5.151 2.306-5.151 5.151v29.129c0 2.845 2.306 5.151 5.151 5.151h488.34c2.845 0 5.151-2.306 5.151-5.151v-15.815h-447.116z" fill="#fe0364"/></g><g><g><path d="m308.773 85.249c0-12.681 2.79-24.704 7.756-35.52h-240.668c-23.821 0-43.132 19.311-43.132 43.132 0 23.821 19.311 43.132 43.132 43.132h249.661c-10.52-14.179-16.749-31.733-16.749-50.744z" fill="#62dbfb"/></g><g><path d="m86.98 92.86c0-23.821 19.311-43.132 43.132-43.132h-54.25c-23.821 0-43.132 19.311-43.132 43.132 0 23.821 19.311 43.132 43.132 43.132h54.25c-23.821 0-43.132-19.311-43.132-43.132z" fill="#01d0fb"/></g><g><path d="m308.773 85.249c0-3.437.227-6.818.622-10.149h-233.534c-9.793 0-17.76 7.967-17.76 17.76s7.967 17.76 17.76 17.76h236.752c-2.495-8.014-3.84-16.535-3.84-25.371z" fill="#c8effe"/></g><g><path d="m100.637 92.86c0-9.793 7.967-17.76 17.76-17.76h-42.536c-9.793 0-17.76 7.967-17.76 17.76s7.967 17.76 17.76 17.76h42.536c-9.793 0-17.76-7.967-17.76-17.76z" fill="#99e6fc"/></g><g><g><circle cx="394.022" cy="85.249" fill="#ffee9a" r="85.249"/><ellipse cx="394.022" cy="85.249" fill="#fee97d" rx="70.249" ry="70.249" transform="matrix(.23 -.973 .973 .23 220.526 449.144)"/><path d="m385.414 15.546c-34.687 4.26-61.641 33.883-61.641 69.702s26.954 65.443 61.641 69.703c-21.886-15.425-36.185-40.889-36.185-69.702s14.299-54.277 36.185-69.703z" fill="#fee45a"/></g><g><g><path d="m376.459 58.245c7.712 0 14.374 4.504 17.547 11.009.005 0 .01.001.016.001s.011-.001.016-.001c3.173-6.505 9.836-11.009 17.547-11.009.21 0 .413.025.622.031 1.512-2.863 2.377-6.12 2.377-9.583 0-11.356-9.206-20.562-20.562-20.562s-20.562 9.206-20.562 20.562c0 3.463.865 6.72 2.377 9.583.208-.006.412-.031.622-.031z" fill="#57be92"/></g><g><path d="m376.459 57.215c7.451 0 13.956 3.976 17.563 9.91.858-1.412 1.862-2.725 3.023-3.887-3.738-3.717-6.058-8.854-6.058-14.544 0-8.217 4.831-15.287 11.798-18.579-2.662-1.258-5.625-1.982-8.764-1.982-11.356 0-20.562 9.206-20.562 20.562 0 3.066.689 5.964 1.892 8.577.37-.021.734-.057 1.108-.057z" fill="#22b27f"/></g><g><path d="m411.585 97.308c-7.103 0-13.315-3.824-16.733-9.51h-1.66c-3.419 5.685-9.63 9.51-16.733 9.51-1.385 0-2.735-.15-4.039-.425l18.794 40.907c1.103 2.4 4.514 2.4 5.617 0l18.795-40.907c-1.305.275-2.656.425-4.041.425z" fill="#ffbd86"/></g><g><g><circle cx="376.459" cy="77.776" fill="#bb5d4c" r="20.562"/></g><g><path d="m373.425 77.776c0-8.217 4.831-15.287 11.798-18.58-2.662-1.258-5.625-1.982-8.764-1.982-11.356 0-20.562 9.206-20.562 20.562s9.206 20.562 20.562 20.562c3.139 0 6.102-.724 8.764-1.982-6.967-3.293-11.798-10.363-11.798-18.58z" fill="#a44f3e"/></g><g><circle cx="411.585" cy="77.776" fill="#fe5694" r="20.562"/></g><g><path d="m408.551 77.776c0-8.217 4.831-15.287 11.798-18.58-2.662-1.258-5.625-1.982-8.764-1.982-11.356 0-20.562 9.206-20.562 20.562s9.206 20.562 20.562 20.562c3.139 0 6.102-.724 8.764-1.982-6.967-3.293-11.798-10.363-11.798-18.58z" fill="#fe0364"/></g></g></g></g></g></g></svg>